<svg t="1659952657887" class="icon" viewBox="0 0 1024 1024" version="1.1" xmlns="http://www.w3.org/2000/svg" p-id="9112" width="200" height="200"><path d="M853.333333 554.666667H170.666667c-29.866667 0-46.933333 25.6-42.666667 51.2l59.733333 264.533333c8.533333 38.4 42.666667 68.266667 85.333334 68.266667h473.6c42.666667 0 76.8-29.866667 85.333333-68.266667l59.733333-264.533333c8.533333-25.6-12.8-51.2-38.4-51.2z m-384 213.333333c0 21.333333-17.066667 42.666667-42.666666 42.666667s-42.666667-21.333333-42.666667-42.666667v-85.333333c0-21.333333 17.066667-42.666667 42.666667-42.666667s42.666667 21.333333 42.666666 42.666667v85.333333z m170.666667 0c0 21.333333-17.066667 42.666667-42.666667 42.666667s-42.666667-21.333333-42.666666-42.666667v-85.333333c0-21.333333 17.066667-42.666667 42.666666-42.666667s42.666667 21.333333 42.666667 42.666667v85.333333zM896 341.333333h-93.866667l-81.066666-204.8c-17.066667-42.666667-68.266667-64-110.933334-46.933333-42.666667 17.066667-64 68.266667-46.933333 110.933333L618.666667 341.333333h-213.333334l55.466667-140.8c17.066667-42.666667-4.266667-93.866667-46.933333-110.933333-42.666667-17.066667-93.866667 4.266667-110.933334 46.933333L221.866667 341.333333H128c-46.933333 0-85.333333 38.4-85.333333 85.333334v42.666666c0 25.6 17.066667 42.666667 42.666666 42.666667h853.333334c25.6 0 42.666667-17.066667 42.666666-42.666667v-42.666666c0-46.933333-38.4-85.333333-85.333333-85.333334z" p-id="9113"></path></svg>